<svg xmlns="http://www.w3.org/2000/svg" viewBox="0 0 196.04 196.04"><g><path style="fill: #1ed760" d="M195.27,86a16.39,16.39,0,0,0-3.3-5.81c-1.68-1.92-4-3.3-8.62-6.08l-3-1.82a15.75,15.75,0,0,1-6.52-19.37c1.83-4.58,2.75-6.88,3-9.15a16.29,16.29,0,0,0-2-9.62c-1.11-2-2.86-3.74-6.35-7.23-3.29-3.29-4.93-4.94-6.81-6a16.26,16.26,0,0,0-9.09-2.15c-2.16.12-4.37.86-8.78,2.33l-6.21,2.07a13.78,13.78,0,0,1-17.15-8c-1.88-4.71-2.82-7.07-4.26-8.91A16.38,16.38,0,0,0,107.87.65C105.63,0,103.09,0,98,0s-7.61,0-9.85.65a16.38,16.38,0,0,0-8.29,5.61c-1.44,1.84-2.38,4.2-4.26,8.91a13.78,13.78,0,0,1-17.15,8l-6.22-2.07c-4.41-1.47-6.61-2.2-8.77-2.33a16.28,16.28,0,0,0-9.1,2.15c-1.87,1.08-3.52,2.72-6.8,6-3.5,3.49-5.24,5.24-6.35,7.23a16.37,16.37,0,0,0-2,9.62c.24,2.27,1.15,4.57,3,9.15a15.78,15.78,0,0,1-6.53,19.38l-3,1.81c-4.63,2.78-6.94,4.16-8.62,6.08A16.39,16.39,0,0,0,.77,86C0,88.39,0,91.11,0,96.56,0,103,0,106.24,1,109a16.37,16.37,0,0,0,4.32,6.38c2.18,2,5.15,3.17,11.08,5.54a12.33,12.33,0,0,1,7.12,15.35l-2.34,7c-1.63,4.87-2.44,7.3-2.51,9.69a16.27,16.27,0,0,0,1.95,8.26c1.13,2.11,3,3.92,6.58,7.55s5.44,5.45,7.55,6.58a16.27,16.27,0,0,0,8.26,2c2.39-.07,4.82-.88,9.69-2.51l5.74-1.91a13.78,13.78,0,0,1,17.15,8c1.88,4.71,2.82,7.07,4.26,8.91a16.38,16.38,0,0,0,8.29,5.61C90.41,196,93,196,98,196s7.61,0,9.85-.65a16.38,16.38,0,0,0,8.29-5.61c1.44-1.84,2.38-4.2,4.26-8.91a13.78,13.78,0,0,1,17.15-8l5.73,1.91c4.87,1.63,7.31,2.44,9.7,2.51a16.3,16.3,0,0,0,8.26-2c2.1-1.13,3.92-2.95,7.55-6.58s5.44-5.44,6.58-7.55a16.47,16.47,0,0,0,2-8.25c-.08-2.4-.89-4.83-2.51-9.7l-2.34-7a12.32,12.32,0,0,1,7.12-15.35c5.93-2.37,8.9-3.56,11.08-5.54A16.37,16.37,0,0,0,195,109c1-2.77,1-6,1-12.45C196,91.11,196,88.39,195.27,86Zm-58.74,49.09a5.22,5.22,0,0,1-7.18,1.73c-19.66-12-44.42-14.73-73.57-8.07a5.22,5.22,0,0,1-2.32-10.18c31.9-7.29,59.26-4.15,81.34,9.34A5.22,5.22,0,0,1,136.53,135.05Zm10.25-22.81h0a6.52,6.52,0,0,1-9,2.16C115.29,100.56,81,96.55,54.35,104.63a6.53,6.53,0,1,1-3.79-12.49c30.41-9.23,68.22-4.76,94.07,11.13A6.52,6.52,0,0,1,146.78,112.24Zm11.61-26.48a7.83,7.83,0,0,1-10.73,2.74h0c-27-16-71.52-17.51-97.29-9.69a7.83,7.83,0,1,1-4.55-15c29.58-9,78.76-7.24,109.83,11.21A7.82,7.82,0,0,1,158.39,85.76Z"/></g></svg>