<svg xmlns="http://www.w3.org/2000/svg" viewBox="0 0 196.04 196.04">
   <path fill="#1ed760" d="m195.27,85a16.39,16.39 0 0 0 -3.3,-5.81c-1.68,-1.92 -4,-3.3 -8.62,-6.08l-3,-1.82a15.75,15.75 0 0 1 -6.52,-19.37c1.83,-4.58 2.75,-6.88 3,-9.15a16.29,16.29 0 0 0 -2,-9.62c-1.11,-2 -2.86,-3.74 -6.35,-7.23c-3.29,-3.29 -4.93,-4.94 -6.81,-6a16.26,16.26 0 0 0 -9.09,-2.15c-2.16,0.12 -4.37,0.86 -8.78,2.33l-6.21,2.07a13.78,13.78 0 0 1 -17.15,-8c-1.88,-4.71 -2.82,-7.07 -4.26,-8.91a16.38,16.38 0 0 0 -8.31,-5.61c-2.24,-0.65 -4.78,-0.65 -9.87,-0.65s-7.61,0 -9.85,0.65a16.38,16.38 0 0 0 -8.29,5.61c-1.44,1.84 -2.38,4.2 -4.26,8.91a13.78,13.78 0 0 1 -17.15,8l-6.22,-2.07c-4.41,-1.47 -6.61,-2.2 -8.77,-2.33a16.28,16.28 0 0 0 -9.1,2.15c-1.87,1.08 -3.52,2.72 -6.8,6c-3.5,3.49 -5.24,5.24 -6.35,7.23a16.37,16.37 0 0 0 -2,9.62c0.24,2.27 1.15,4.57 3,9.15a15.78,15.78 0 0 1 -6.53,19.38l-3,1.81c-4.63,2.78 -6.94,4.16 -8.62,6.08a16.39,16.39 0 0 0 -3.29,5.81c-0.77,2.39 -0.77,5.11 -0.77,10.56c0,6.44 0,9.68 1,12.44a16.37,16.37 0 0 0 4.32,6.38c2.18,2 5.15,3.17 11.08,5.54a12.33,12.33 0 0 1 7.12,15.35l-2.34,7c-1.63,4.87 -2.44,7.3 -2.51,9.69a16.27,16.27 0 0 0 1.95,8.26c1.13,2.11 3,3.92 6.58,7.55s5.44,5.45 7.55,6.58a16.27,16.27 0 0 0 8.26,2c2.39,-0.07 4.82,-0.88 9.69,-2.51l5.74,-1.91a13.78,13.78 0 0 1 17.15,8c1.88,4.71 2.82,7.07 4.26,8.91a16.38,16.38 0 0 0 8.29,5.61c2.27,0.55 4.86,0.55 9.86,0.55s7.61,0 9.85,-0.65a16.38,16.38 0 0 0 8.29,-5.61c1.44,-1.84 2.38,-4.2 4.26,-8.91a13.78,13.78 0 0 1 17.15,-8l5.73,1.91c4.87,1.63 7.31,2.44 9.7,2.51a16.3,16.3 0 0 0 8.26,-2c2.1,-1.13 3.92,-2.95 7.55,-6.58s5.44,-5.44 6.58,-7.55a16.47,16.47 0 0 0 2,-8.25c-0.08,-2.4 -0.89,-4.83 -2.51,-9.7l-2.34,-7a12.32,12.32 0 0 1 7.12,-15.35c5.93,-2.37 8.9,-3.56 11.08,-5.54a16.37,16.37 0 0 0 4.28,-6.28c1,-2.77 1,-6 1,-12.45c0,-5.44 0,-8.16 -0.73,-10.55zm-58.74,0"/>
   <path fill="#000" d="m153.60286,91.16286a9.36571,9.36571 0 0 0 -1.88571,-3.32c-0.96,-1.09714 -2.28571,-1.88571 -4.92571,-3.47429l-1.71429,-1.04a9,9 0 0 1 -3.72571,-11.06857c1.04571,-2.61714 1.57143,-3.93143 1.71429,-5.22857a9.30857,9.30857 0 0 0 -1.14286,-5.49714c-0.63429,-1.14286 -1.63429,-2.13714 -3.62857,-4.13143c-1.88,-1.88 -2.81714,-2.82286 -3.89143,-3.42857a9.29143,9.29143 0 0 0 -5.19429,-1.22857c-1.23429,0.06857 -2.49714,0.49143 -5.01714,1.33143l-3.54857,1.18286a7.87429,7.87429 0 0 1 -9.8,-4.57143c-1.07429,-2.69143 -1.61143,-4.04 -2.43429,-5.09143a9.36,9.36 0 0 0 -4.74857,-3.20571c-1.28,-0.37143 -2.73143,-0.37143 -5.64,-0.37143s-4.34857,0 -5.62857,0.37143a9.36,9.36 0 0 0 -4.73714,3.20571c-0.82286,1.05143 -1.36,2.4 -2.43429,5.09143a7.87429,7.87429 0 0 1 -9.8,4.57143l-3.55429,-1.18286c-2.52,-0.84 -3.77714,-1.25714 -5.01143,-1.33143a9.30286,9.30286 0 0 0 -5.2,1.22857c-1.06857,0.61714 -2.01143,1.55429 -3.88571,3.42857c-2,1.99429 -2.99429,2.99429 -3.62857,4.13143a9.35429,9.35429 0 0 0 -1.14286,5.49714c0.13714,1.29714 0.65714,2.61143 1.71429,5.22857a9.01714,9.01714 0 0 1 -3.73143,11.07429l-1.71429,1.03429c-2.64571,1.58857 -3.96571,2.37714 -4.92571,3.47429a9.36571,9.36571 0 0 0 -1.88,3.32c-0.44,1.36571 -0.44,2.92 -0.44,6.03429c0,3.68 0,5.53143 0.57143,7.10857a9.35429,9.35429 0 0 0 2.46857,3.64571c1.24571,1.14286 2.94286,1.81143 6.33143,3.16571a7.04571,7.04571 0 0 1 4.06857,8.77143l-1.33714,4c-0.93143,2.78286 -1.39429,4.17143 -1.43429,5.53714a9.29714,9.29714 0 0 0 1.11429,4.72c0.64571,1.20571 1.71429,2.24 3.76,4.31429s3.10857,3.11429 4.31429,3.76a9.29714,9.29714 0 0 0 4.72,1.14286c1.36571,-0.04 2.75429,-0.50286 5.53714,-1.43429l3.28,-1.09143a7.87429,7.87429 0 0 1 9.8,4.57143c1.07429,2.69143 1.61143,4.04 2.43429,5.09143a9.36,9.36 0 0 0 4.73714,3.20571c1.29714,0.31429 2.77714,0.31429 5.63429,0.31429s4.34857,0 5.62857,-0.37143a9.36,9.36 0 0 0 4.73714,-3.20571c0.82286,-1.05143 1.36,-2.4 2.43429,-5.09143a7.87429,7.87429 0 0 1 9.8,-4.57143l3.27429,1.09143c2.78286,0.93143 4.17714,1.39429 5.54286,1.43429a9.31429,9.31429 0 0 0 4.72,-1.14286c1.2,-0.64571 2.24,-1.68571 4.31429,-3.76s3.10857,-3.10857 3.76,-4.31429a9.41143,9.41143 0 0 0 1.14286,-4.71429c-0.04571,-1.37143 -0.50857,-2.76 -1.43429,-5.54286l-1.33714,-4a7.04,7.04 0 0 1 4.06857,-8.77143c3.38857,-1.35429 5.08571,-2.03429 6.33143,-3.16571a9.35429,9.35429 0 0 0 2.44571,-3.58857c0.57143,-1.58286 0.57143,-3.42857 0.57143,-7.11429c0,-3.10857 0,-4.66286 -0.41714,-6.02857zm-33.56571,0"/>
  <ellipse ry="13.5" rx="13.5" id="svg_10" cy="98.02" cx="98.02" fill="#fff"/>
</svg>