<?xml version="1.0" standalone="no"?>
<!DOCTYPE svg PUBLIC "-//W3C//DTD SVG 20010904//EN"
 "http://www.w3.org/TR/2001/REC-SVG-20010904/DTD/svg10.dtd">
<svg version="1.0" xmlns="http://www.w3.org/2000/svg"
 width="700.000000pt" height="700.000000pt" viewBox="0 0 700.000000 700.000000"
 preserveAspectRatio="xMidYMid meet">
<metadata>
Created by potrace 1.14, written by Peter Selinger 2001-2017
</metadata>
<g transform="translate(0.000000,700.000000) scale(0.100000,-0.100000)"
fill="#000000" stroke="none">
<path d="M3035 6967 c-136 -73 -223 -185 -304 -390 -66 -166 -128 -251 -230
-316 -85 -54 -163 -74 -276 -69 -91 4 -118 11 -315 76 -118 39 -246 79 -285
88 -130 30 -282 3 -410 -74 -73 -44 -385 -352 -439 -433 -76 -115 -112 -283
-87 -410 7 -34 37 -125 67 -203 66 -172 79 -233 71 -339 -10 -143 -70 -269
-169 -363 -29 -27 -129 -96 -223 -153 -175 -107 -243 -155 -283 -200 -47 -52
-101 -144 -124 -209 -22 -65 -23 -78 -23 -407 l0 -340 26 -71 c33 -91 86 -170
156 -234 63 -58 123 -90 308 -167 72 -29 154 -70 183 -90 81 -55 147 -156 172
-262 23 -96 10 -165 -84 -447 -96 -293 -110 -363 -95 -473 21 -150 64 -225
224 -397 261 -279 390 -364 580 -380 96 -8 149 3 439 97 l251 81 102 -4 c96
-4 108 -7 186 -46 144 -71 194 -137 303 -397 50 -120 88 -179 163 -248 70 -64
152 -110 238 -132 83 -22 594 -22 677 0 127 33 258 124 330 228 20 29 65 121
100 204 35 82 77 171 94 196 92 132 280 219 440 202 34 -4 142 -33 240 -66
277 -93 354 -112 453 -111 102 0 214 34 299 89 71 46 407 382 453 453 55 85
89 197 89 299 1 102 -8 138 -110 444 -75 225 -77 235 -76 327 0 73 5 108 22
150 44 110 141 207 252 252 341 135 431 198 514 358 57 111 61 141 61 495 0
303 -1 324 -22 390 -25 79 -81 173 -138 230 -39 38 -133 101 -347 234 -218
134 -318 294 -318 506 1 92 11 134 70 290 27 72 57 159 66 195 33 129 -1 306
-82 429 -51 77 -355 379 -431 428 -96 62 -187 88 -313 87 -105 0 -106 -1 -355
-84 -233 -78 -257 -84 -350 -88 -113 -5 -191 15 -276 69 -102 65 -164 150
-230 316 -81 206 -169 318 -306 391 l-61 32 -403 0 -404 -1 -60 -32z m551
-2998 c250 -46 426 -293 385 -541 -43 -261 -288 -441 -543 -399 -207 34 -365
192 -399 399 -46 278 176 542 462 551 19 0 62 -4 95 -10z"/>
</g>
</svg>
