<?xml version="1.0" standalone="no"?>
<!DOCTYPE svg PUBLIC "-//W3C//DTD SVG 20010904//EN"
 "http://www.w3.org/TR/2001/REC-SVG-20010904/DTD/svg10.dtd">
<svg version="1.0" xmlns="http://www.w3.org/2000/svg"
 width="700.000000pt" height="700.000000pt" viewBox="0 0 700.000000 700.000000"
 preserveAspectRatio="xMidYMid meet">
<metadata>
Created by potrace 1.14, written by Peter Selinger 2001-2017
</metadata>
<g transform="translate(0.000000,700.000000) scale(0.100000,-0.100000)"
fill="#000000" stroke="none">
<path d="M3220 6993 c-120 -18 -250 -88 -338 -182 -42 -45 -120 -187 -156
-286 -73 -199 -185 -308 -371 -364 -11 -3 -65 -6 -120 -5 -97 0 -107 2 -330
76 -126 42 -254 81 -283 87 -138 28 -297 -3 -418 -81 -71 -46 -367 -342 -419
-418 -71 -103 -108 -236 -99 -355 6 -90 11 -106 74 -270 55 -141 70 -203 70
-292 0 -98 -15 -165 -58 -250 -66 -134 -107 -170 -397 -348 -165 -101 -235
-162 -288 -250 -76 -127 -81 -155 -83 -480 -2 -314 5 -398 41 -486 65 -161
169 -253 390 -344 171 -71 235 -105 281 -147 94 -86 144 -201 144 -332 0 -67
-6 -87 -156 -544 -57 -173 -46 -323 34 -477 30 -58 70 -104 237 -271 168 -168
211 -206 270 -236 88 -45 176 -68 268 -68 98 -1 101 0 406 100 237 78 315 91
416 70 126 -26 249 -107 314 -208 17 -27 51 -97 76 -158 76 -182 105 -233 175
-304 77 -76 182 -134 280 -154 46 -9 144 -12 340 -11 299 2 323 6 442 66 69
35 165 122 209 190 17 28 60 118 95 201 79 189 119 244 228 312 92 59 173 81
280 78 72 -2 80 -5 329 -87 220 -72 309 -95 369 -95 142 0 296 62 405 163 131
120 324 323 359 374 86 130 116 291 80 444 -8 35 -48 165 -89 289 -41 124 -78
239 -81 255 -27 143 17 286 123 393 50 50 102 81 206 122 156 61 286 130 337
178 70 65 135 162 153 227 15 54 16 59 24 120 9 65 7 605 -2 643 -13 52 -20
70 -55 140 -22 45 -57 96 -91 130 -58 58 -88 80 -321 223 -207 127 -290 225
-335 394 -26 101 -17 255 20 340 29 65 95 252 101 285 19 111 4 245 -40 343
-37 83 -90 147 -271 325 -182 179 -229 212 -358 250 -53 16 -91 20 -170 18
-98 -3 -113 -6 -352 -86 -213 -70 -263 -83 -336 -88 -128 -7 -230 27 -335 112
-64 52 -106 113 -151 218 -66 157 -120 263 -156 306 -83 99 -202 172 -321 197
-56 12 -526 18 -596 8z m250 -2097 c19 -2 76 -7 125 -11 86 -6 150 -12 205
-20 14 -2 52 -7 85 -10 33 -4 67 -8 75 -10 8 -2 38 -7 65 -10 178 -23 582
-119 803 -192 353 -116 710 -288 795 -383 111 -123 86 -319 -51 -410 -107 -71
-195 -67 -350 17 -135 73 -280 140 -402 185 -52 20 -104 39 -115 44 -11 4 -24
8 -30 10 -5 1 -62 18 -125 37 -162 49 -374 99 -510 121 -19 3 -46 8 -60 10
-52 10 -247 36 -305 42 -33 3 -76 7 -95 9 -224 26 -784 26 -1030 0 -207 -22
-432 -58 -545 -87 -44 -11 -87 -21 -95 -23 -8 -2 -51 -13 -95 -24 -96 -25
-154 -22 -224 13 -100 51 -157 154 -149 269 5 72 25 119 73 170 58 62 120 85
378 143 180 40 187 42 237 48 32 4 156 23 206 31 19 3 103 12 189 20 22 2 96
7 165 10 69 4 127 9 129 11 5 5 607 -4 651 -10z m-85 -1030 c22 -3 67 -8 100
-11 51 -6 287 -41 405 -61 202 -34 606 -156 815 -246 224 -97 470 -232 511
-281 39 -46 56 -93 56 -157 1 -125 -93 -222 -220 -226 -66 -3 -91 4 -152 42
-253 153 -548 272 -903 364 -65 16 -132 32 -150 35 -18 3 -43 8 -57 10 -14 3
-36 8 -50 10 -14 3 -38 7 -55 9 -16 3 -43 7 -60 10 -56 9 -190 26 -275 33
-114 10 -615 10 -715 0 -227 -24 -394 -53 -600 -107 -158 -41 -179 -44 -235
-27 -152 44 -215 228 -123 357 47 65 93 85 328 144 125 31 343 70 455 82 30 3
66 7 80 9 14 3 68 7 120 11 52 4 96 8 98 9 5 5 583 -4 627 -9z m-133 -971 c80
-3 155 -7 165 -9 10 -2 52 -7 93 -11 41 -4 77 -8 80 -10 3 -2 30 -6 60 -10
310 -38 796 -204 1060 -364 19 -11 42 -24 50 -28 156 -71 188 -245 63 -340
-32 -25 -45 -28 -107 -28 -57 0 -77 4 -102 22 -50 36 -271 147 -379 191 -126
51 -315 113 -345 114 -3 0 -15 4 -28 9 -13 5 -36 11 -53 14 -16 3 -61 12 -99
20 -81 17 -106 21 -180 31 -30 4 -66 8 -80 10 -199 26 -645 26 -860 -1 -170
-22 -334 -48 -445 -72 -72 -15 -160 -27 -197 -28 -60 0 -70 3 -105 31 -50 41
-73 82 -77 138 -6 86 60 175 143 192 20 4 38 8 41 9 33 9 153 33 225 45 33 5
69 12 80 14 18 3 74 12 135 21 132 20 299 35 450 41 85 4 156 7 157 8 2 1 64
-1 255 -9z"/>
</g>
</svg>
